<svg width="18" height="18" viewBox="0 0 18 18" fill="none" xmlns="http://www.w3.org/2000/svg">
<path d="M14.1218 6.59155C14.74 6.08451 15.1335 5.66197 15.3021 5.32394C14.9368 5.49296 14.5012 5.61972 13.9953 5.70423C14.5012 5.33803 14.8384 4.88732 15.007 4.35211C14.445 4.66197 13.9251 4.85915 13.4473 4.94366C13.1101 4.5493 12.6745 4.3169 12.1405 4.24648C11.6066 4.17606 11.1077 4.24648 10.644 4.45775C10.1803 4.66901 9.80796 5.02113 9.52693 5.51408C9.2459 6.00704 9.17564 6.5493 9.31616 7.14084C7.43326 7.02817 5.77518 6.19718 4.34192 4.64789C4.03279 5.21127 3.96955 5.82394 4.15222 6.48592C4.33489 7.14789 4.637 7.60563 5.05855 7.85915C4.74941 7.83099 4.41218 7.73239 4.04684 7.56338C4.07494 8.77465 4.69321 9.57747 5.90164 9.97183C5.5644 10.0563 5.22717 10.0704 4.88993 10.0141C5.22717 11.0282 5.9719 11.5915 7.12412 11.7042C6.70258 12.0704 6.15457 12.3451 5.48009 12.5282C4.80562 12.7113 4.1733 12.7606 3.58314 12.6761C4.84777 13.4648 6.14051 13.831 7.46136 13.7746C9.42857 13.6901 11.0234 12.993 12.2459 11.6831C13.4684 10.3732 14.0937 8.67606 14.1218 6.59155ZM16.1874 0C16.6932 0 17.1218 0.176056 17.4731 0.528169C17.8244 0.880282 18 1.29577 18 1.77465V16.2254C18 16.7042 17.8244 17.1197 17.4731 17.4718C17.1218 17.8239 16.6932 18 16.1874 18H1.81265C1.30679 18 0.87822 17.8239 0.526932 17.4718C0.175644 17.1197 0 16.7042 0 16.2254V1.77465C0 1.29577 0.175644 0.880282 0.526932 0.528169C0.87822 0.176056 1.30679 0 1.81265 0H16.1874Z" fill="white"/>
</svg>
