<svg width="66" height="50" viewBox="0 0 66 50" fill="none" xmlns="http://www.w3.org/2000/svg">
<path d="M8.79 12.34V15.94H17.55V21.28H8.79V28H1.71V7H18.78V12.34H8.79ZM20.8066 5.74H27.5866V28H20.8066V5.74ZM48.0518 19.78C48.0518 19.88 48.0218 20.41 47.9618 21.37H36.5618C36.8018 21.99 37.2018 22.47 37.7618 22.81C38.3218 23.13 39.0218 23.29 39.8618 23.29C40.5818 23.29 41.1818 23.2 41.6618 23.02C42.1618 22.84 42.7018 22.53 43.2818 22.09L46.8218 25.66C45.2218 27.42 42.8318 28.3 39.6518 28.3C37.6718 28.3 35.9318 27.94 34.4318 27.22C32.9318 26.48 31.7718 25.46 30.9518 24.16C30.1318 22.86 29.7218 21.4 29.7218 19.78C29.7218 18.14 30.1218 16.68 30.9218 15.4C31.7418 14.1 32.8518 13.09 34.2518 12.37C35.6718 11.65 37.2618 11.29 39.0218 11.29C40.6818 11.29 42.1918 11.62 43.5518 12.28C44.9318 12.94 46.0218 13.91 46.8218 15.19C47.6418 16.47 48.0518 18 48.0518 19.78ZM39.0818 15.91C38.3818 15.91 37.8018 16.1 37.3418 16.48C36.8818 16.86 36.5818 17.4 36.4418 18.1H41.7218C41.5818 17.42 41.2818 16.89 40.8218 16.51C40.3618 16.11 39.7818 15.91 39.0818 15.91ZM56.6114 28.3C55.2114 28.3 53.8314 28.15 52.4714 27.85C51.1114 27.55 50.0114 27.16 49.1714 26.68L51.0314 22.21C51.7914 22.67 52.6914 23.03 53.7314 23.29C54.7714 23.55 55.7814 23.68 56.7614 23.68C57.5414 23.68 58.0814 23.62 58.3814 23.5C58.7014 23.36 58.8614 23.16 58.8614 22.9C58.8614 22.64 58.6614 22.46 58.2614 22.36C57.8814 22.26 57.2514 22.16 56.3714 22.06C55.0314 21.9 53.8914 21.7 52.9514 21.46C52.0114 21.2 51.1814 20.71 50.4614 19.99C49.7614 19.27 49.4114 18.24 49.4114 16.9C49.4114 15.84 49.7314 14.89 50.3714 14.05C51.0114 13.21 51.9614 12.54 53.2214 12.04C54.5014 11.54 56.0314 11.29 57.8114 11.29C59.0514 11.29 60.2614 11.41 61.4414 11.65C62.6414 11.87 63.6614 12.2 64.5014 12.64L62.6414 17.11C61.2014 16.31 59.6214 15.91 57.9014 15.91C56.4214 15.91 55.6814 16.17 55.6814 16.69C55.6814 16.95 55.8814 17.14 56.2814 17.26C56.6814 17.36 57.3114 17.46 58.1714 17.56C59.5114 17.72 60.6414 17.93 61.5614 18.19C62.5014 18.45 63.3214 18.94 64.0214 19.66C64.7414 20.38 65.1014 21.41 65.1014 22.75C65.1014 23.77 64.7814 24.7 64.1414 25.54C63.5014 26.38 62.5414 27.05 61.2614 27.55C59.9814 28.05 58.4314 28.3 56.6114 28.3ZM63.6914 4.99L59.8514 9.79H54.0914L50.2514 4.99H54.4514L56.9714 7.3L59.4914 4.99H63.6914Z" fill="white"/>
<path d="M33.1214 31.7671V45H29.454L24.4255 38.9885V45H20.0775V31.7671H23.7449L28.7734 37.7786V31.7671H33.1214ZM35.0441 48.8564C33.9477 48.8564 33.0718 48.6863 32.4165 48.346L33.4373 45.3781C33.7397 45.5419 34.0611 45.6238 34.4014 45.6238C34.666 45.6238 34.8803 45.523 35.0441 45.3214C35.208 45.1323 35.2899 44.8362 35.2899 44.4329V34.6595H39.5622V44.4707C39.5622 45.8192 39.1589 46.8841 38.3523 47.6655C37.5584 48.4595 36.4556 48.8564 35.0441 48.8564ZM37.426 33.8277C36.6573 33.8277 36.0334 33.626 35.5545 33.2227C35.0882 32.8068 34.8551 32.2838 34.8551 31.6537C34.8551 31.0236 35.0882 30.5068 35.5545 30.1036C36.0334 29.6877 36.6573 29.4797 37.426 29.4797C38.2074 29.4797 38.8312 29.6751 39.2975 30.0658C39.7639 30.4564 39.997 30.9605 39.997 31.5781C39.997 32.2334 39.7639 32.7753 39.2975 33.2038C38.8312 33.6197 38.2074 33.8277 37.426 33.8277ZM52.757 34.6595V45H48.6926V44.017C48.3145 44.4077 47.8734 44.7038 47.3693 44.9055C46.8652 45.0945 46.3296 45.189 45.7625 45.189C44.4518 45.189 43.3994 44.7921 42.6055 43.9981C41.8115 43.1915 41.4145 41.9816 41.4145 40.3685V34.6595H45.6868V39.6312C45.6868 40.337 45.8003 40.8411 46.0271 41.1436C46.254 41.446 46.5879 41.5973 47.029 41.5973C47.4449 41.5973 47.7915 41.4334 48.0688 41.1058C48.346 40.7655 48.4847 40.2362 48.4847 39.5178V34.6595H52.757ZM64.1418 41.8808V45H54.2739V42.5425L58.5462 37.7786H54.4251V34.6595H63.9339V37.117L59.6616 41.8808H64.1418Z" fill="white"/>
</svg>
