<svg width="26" height="26" viewBox="0 0 26 26" fill="none" xmlns="http://www.w3.org/2000/svg">
<path d="M18.3603 10.4747C16.2617 10.4747 15.2442 10.9198 14.2903 11.2378C14.6083 10.2839 15.0535 9.26642 15.0535 7.16785V0.0454102H10.4748V7.16785C10.4748 9.26642 10.9199 10.2839 11.2379 11.2378C10.284 10.9198 9.26648 10.4747 7.16791 10.4747H0.0454712V15.0534H7.16791C9.26648 15.0534 10.284 14.6082 11.2379 14.2903C10.9199 15.2442 10.4748 16.2617 10.4748 18.3602V25.4827H15.0535V18.3602C15.0535 16.2617 14.6083 15.2442 14.2903 14.2903C15.2442 14.6082 16.2617 15.0534 18.3603 15.0534H25.4827V10.4747H18.3603Z" fill="white"/>
</svg>
