<svg width="22" height="31" viewBox="0 0 22 31" fill="none" xmlns="http://www.w3.org/2000/svg">
<path d="M11.2081 7.41325C8.96501 7.41325 7.04996 8.20678 5.46289 9.79384C3.87582 11.3809 3.08229 13.296 3.08229 15.539C3.08229 16.8933 3.3997 18.163 4.03453 19.348L2.00309 21.3159C0.902722 19.5384 0.352539 17.6128 0.352539 15.539C0.352539 12.5342 1.41058 9.97371 3.52667 7.85762C5.64276 5.74154 8.20322 4.68349 11.2081 4.68349V0.620605L16.6041 6.08011L11.2081 11.4761V7.41325ZM20.3496 9.7621C21.4499 11.5396 22.0001 13.4653 22.0001 15.539C22.0001 18.5439 20.9421 21.1043 18.826 23.2204C16.7099 25.3365 14.1706 26.3945 11.2081 26.3945V30.4574L5.74856 24.9979L11.2081 19.6019V23.6648C13.4511 23.6648 15.3662 22.8713 16.9532 21.2842C18.5403 19.6971 19.3338 17.7821 19.3338 15.539C19.3338 14.227 19.0164 12.9574 18.3816 11.7301L20.3496 9.7621Z" fill="white"/>
</svg>
